# xmcd
#
# Track frame offsets:
# 150
# 22423
# 44634
# 65298
# 84458
# 108773
# 131966
# 149614
#
# Disc length: 2267 seconds
#
#
# Revision: 0
# Processed by: cddbd v1.5.2PL0 Copyright (c) Steve Scherf et al.
# Submitted via: FreeRIP 2.945 
#
DISCID=7808d908
DTITLE=Skyy - Skyyway
DYEAR=1900
DGENRE=R&B
TTITLE0=High
TTITLE1=Skyyzoo
TTITLE2=Dance
TTITLE3=Don't Stop
TTITLE4=Love Plane
TTITLE5=You Got Me Up
TTITLE6=Who's Gonna Love Me
TTITLE7=Music, Music
EXTD=
EXTT0=
EXTT1=
EXTT2=
EXTT3=
EXTT4=
EXTT5=
EXTT6=
EXTT7=
PLAYORDER=
